<svg id="e7k6BRiJQ9K1" xmlns="http://www.w3.org/2000/svg" xmlns:xlink="http://www.w3.org/1999/xlink" viewBox="0 0 1080 1920" shape-rendering="geometricPrecision" text-rendering="geometricPrecision" project-id="27f1bd2860564078ac3850fd5af88d3e" export-id="e5f7feda19e7496da670431e4870b30d" cached="false"><path d="M922.584658,1782.44644c0,0,21.690953,43.137347,0,44.22944-495.390684,24.941858-774.015204-122.758863-774.015204-278.645473c0-199.750138,678.311106,13.634442,690.165171-185.763649c13.955667-234.749285-718.653866-92.220509-712.279891-327.297858c7.754656-285.997973,915.329237-65.966699,886.872894-350.651107-24.502061-245.12477-867.546517,91.519844-842.643454-153.564511c19.50057-191.915537,247.156603-317.49482,766.902204-317.49482c13.030939,0-15.00172-40.763645-15.00172-40.763645-274.22253-20.787836-871.415551,176.26296-751.900484,402.487906c123.842433,234.416032,664.56494-204.917833,804.975812,109.33507C1161.423635,1100.07453,49.488246,754.284081,91.071182,1034.9689c53.075328,358.258466,760.746371-26.537663,716.516931,327.297858-22.897867,183.182939-588.251555-57.498273-636.903939,185.763649-46.03892,230.194601,504.215618,318.451969,751.900484,234.416033Z" transform="translate(0 0.000001)" fill="#a3a3a3" stroke="#3c3939" stroke-width="3"/></svg>
