<svg id="eZenFtAYz2x1" xmlns="http://www.w3.org/2000/svg" xmlns:xlink="http://www.w3.org/1999/xlink" viewBox="0 0 1920 1080" shape-rendering="geometricPrecision" text-rendering="geometricPrecision" project-id="2e2c0a51faab411fa08b4cc9523198e1" export-id="b1ae7dd19bf64c1e821b0a6d59027c2e" cached="false"><path d="M899.046304,166.689703C729.190267,17.69093,191.128214,91.350519,112.868004,318.45197C75.46649,426.986537,255.965048,568.638175,364.146511,607.049066c156.104816,55.426549,409.782079-230.86105,816.033172-141.810644c102.60107,22.490197,138.820894,254.290245,243.814788,251.278507c111.781453-3.206439,445.433779-302.023278,365.722184-422.944023C1512.773284,-126.544126,149.559942,371.83798,214.872148,870.767101c55.449266,423.584731,1310.363004-166.127202,1410.642709,124.019045c3.490805,10.100188,8.03808-22.436685,0-29.478617-305.236971-267.409391-1334.034459,307.542165-1388.870393-94.540428-63.78121-467.673524,1268.131782-956.811853,1530.379228-564.36715c82.765425,123.855745-199.054459,375.752504-348.005034,377.774195-102.916789,1.396879-140.881402-214.709495-238.838977-246.302696-250.392007-80.756235-621.981234,259.04209-863.303386,154.250172-99.504359-43.20885-239.531456-203.924081-196.544575-303.524535C213.844813,71.927578,695.682109,18.988066,894.070489,146.786444c5.174115,3.333076,9.602667,23.961963,4.975815,19.903259Z" transform="translate(.000002 0.000011)" fill="#a1a1a1" stroke="#000" stroke-width="3.84"/></svg>
